<svg id="Camada_1" data-name="Camada 1" xmlns="http://www.w3.org/2000/svg" viewBox="0 0 585.88 214.12"><defs><style>.cls-1,.cls-2{fill:#fff;}.cls-2{fill-rule:evenodd;}.cls-3{fill:none;stroke:#fff;stroke-miterlimit:10;stroke-width:3.64px;}</style></defs><title>Prancheta 64</title><path class="cls-1" d="M112.78,55.05c25.38-6.4,48.64-6.79,71.14,2.79.43.3.2.6.09.79-1.25.76-1.49,3.13-2.71,2.46-23.58-8.66-45.06-9.91-69.07-3.51-.28.05-.5.09-.61.63a4.74,4.74,0,0,0,0,1.68c.06.34.25.38.57.28,22.47-4.74,45.5-4,68.06,5.47a.43.43,0,0,1,.07.74c-1.36.91-1.5,2.87-2.44,2.54h0c-22.07-9-43-10.74-65.35-6.44a.37.37,0,0,0-.31.49,4,4,0,0,0,.51,1.27.82.82,0,0,0,.94.35c24.66-3.45,41.15-1.22,62.41,9,.44.18.41.68.13.79-.88.36-1.67,2.63-2.26,2.22-20.59-9.5-35.46-13.36-60.84-9.57a1.82,1.82,0,0,1-2-.87c-2.21-5-2.22-10-.31-14a3.21,3.21,0,0,1,1.85-1.67c23.69-8.78,52.46-9.51,75.9-.43.25.12.21.58-.19.76-1.12.53-1.41,3.05-2.69,2.62l-.07,0a105,105,0,0,0-71.69-.91,1.51,1.51,0,0,0-1,.78,6.79,6.79,0,0,0-.48,1.31c-.12.41,0,.66.41.49"/><path class="cls-1" d="M148.25,74.83c22.47,13.42,39.19,29.59,48.33,52.27.09.52-.28.57-.5.62-1.42-.34-3.26,1.17-3.65-.18-10.55-22.79-24.85-38.86-46.36-51.32-.23-.16-.42-.28-.87,0A4.64,4.64,0,0,0,144,77.43c-.2.28-.09.44.2.59,19.24,12.54,35,29.35,44.26,52a.43.43,0,0,1-.47.57c-1.61-.32-3.1,1-3.52.07h0c-9.2-22-22.78-38-41.66-50.76a.36.36,0,0,0-.57.12,4.35,4.35,0,0,0-.53,1.25.82.82,0,0,0,.42.92c19.87,15,30,28.23,37.79,50.46.18.44-.19.77-.46.66-.88-.37-3,.67-3.17,0C168.45,112,160.66,98.74,140,83.48a1.82,1.82,0,0,1-.81-2c2-5.12,5.49-8.62,9.67-10.1a3.22,3.22,0,0,1,2.49.12c23,10.55,43.82,30.37,54,53.37.1.26-.26.55-.67.41-1.16-.43-3.15,1.15-3.76-.06l0-.07h0a105.05,105.05,0,0,0-50-51.34,1.52,1.52,0,0,0-1.28-.18,7.22,7.22,0,0,0-1.27.58c-.38.22-.48.47-.06.65"/><path class="cls-1" d="M159.35,113.89c6.4,25.38,6.79,48.64-2.8,71.13-.29.44-.59.21-.78.1-.76-1.25-3.13-1.49-2.46-2.71,8.66-23.58,9.91-45.06,3.51-69.07,0-.28-.09-.5-.63-.61a4.74,4.74,0,0,0-1.68,0c-.34.06-.38.25-.28.57,4.74,22.47,4,45.5-5.47,68.06a.43.43,0,0,1-.74.07c-.91-1.36-2.87-1.5-2.54-2.44h0c9-22.06,10.74-42.95,6.43-65.35a.35.35,0,0,0-.48-.31,4,4,0,0,0-1.27.51.82.82,0,0,0-.35.94c3.45,24.66,1.22,41.15-9,62.41-.19.44-.68.41-.79.13-.36-.88-2.63-1.67-2.22-2.26,9.5-20.59,13.36-35.46,9.57-60.84a1.82,1.82,0,0,1,.87-2c5-2.21,10-2.22,14-.31a3.18,3.18,0,0,1,1.67,1.85c8.78,23.69,9.51,52.46.43,75.9-.12.25-.58.21-.76-.19-.53-1.12-3.05-1.41-2.62-2.69l0-.07a105,105,0,0,0,.91-71.69,1.54,1.54,0,0,0-.78-1,6.79,6.79,0,0,0-1.31-.48c-.41-.12-.66,0-.49.41"/><path class="cls-1" d="M139.57,149.36C126.15,171.83,110,188.55,87.3,197.68c-.52.1-.57-.27-.62-.49.34-1.42-1.17-3.26.18-3.65,22.79-10.55,38.86-24.85,51.32-46.36.16-.23.28-.42,0-.87a4.64,4.64,0,0,0-1.19-1.19c-.28-.2-.44-.09-.59.2-12.55,19.24-29.36,35-52,44.26a.43.43,0,0,1-.57-.47c.32-1.61-1-3.1-.07-3.52h0c22-9.2,38-22.78,50.75-41.66a.36.36,0,0,0-.12-.57,4.35,4.35,0,0,0-1.25-.53.82.82,0,0,0-.92.42c-15,19.87-28.23,30-50.47,37.79-.43.18-.76-.19-.65-.46.37-.88-.67-3,0-3.17,21.28-7.84,34.53-15.63,49.79-36.25a1.81,1.81,0,0,1,2-.81c5.11,2,8.62,5.49,10.1,9.67a3.22,3.22,0,0,1-.12,2.49c-10.55,23-30.37,43.82-53.37,54-.26.1-.56-.26-.41-.67.43-1.16-1.15-3.15.06-3.76l.07,0h0a105,105,0,0,0,51.34-50,1.56,1.56,0,0,0,.18-1.28,7.22,7.22,0,0,0-.58-1.27c-.22-.38-.47-.48-.65-.06"/><path class="cls-1" d="M100.51,160.45c-25.38,6.41-48.64,6.8-71.14-2.79-.43-.29-.2-.59-.09-.78,1.25-.76,1.49-3.13,2.71-2.46,23.58,8.66,45.06,9.91,69.07,3.51.28-.05.5-.09.61-.63a4.74,4.74,0,0,0,0-1.68c-.06-.34-.25-.38-.57-.28-22.47,4.74-45.5,4-68.06-5.47a.43.43,0,0,1-.07-.74c1.36-.91,1.5-2.87,2.44-2.54h0c22.06,9.05,42.95,10.74,65.35,6.43a.35.35,0,0,0,.31-.48,4,4,0,0,0-.51-1.27.82.82,0,0,0-.94-.35c-24.66,3.45-41.15,1.22-62.41-9-.44-.18-.41-.68-.13-.79.88-.36,1.67-2.63,2.26-2.22,20.59,9.5,35.46,13.36,60.84,9.57a1.82,1.82,0,0,1,2,.87c2.21,5,2.22,10,.31,14a3.18,3.18,0,0,1-1.85,1.67c-23.69,8.78-52.46,9.51-75.9.43-.25-.12-.21-.58.19-.77,1.12-.52,1.41-3,2.69-2.61l.07,0A105,105,0,0,0,99.4,163a1.54,1.54,0,0,0,1-.78,6.79,6.79,0,0,0,.48-1.31c.12-.41,0-.66-.41-.5"/><path class="cls-1" d="M65,140.68c-22.47-13.42-39.19-29.59-48.33-52.27-.09-.52.28-.57.5-.63,1.42.35,3.26-1.16,3.65.19,10.55,22.78,24.85,38.86,46.36,51.32.23.16.42.28.87,0a4.64,4.64,0,0,0,1.19-1.19c.2-.28.09-.44-.2-.59-19.24-12.55-35-29.36-44.26-52a.43.43,0,0,1,.47-.57c1.61.32,3.09-1,3.52-.07h0c9.2,22,22.78,38,41.66,50.76a.36.36,0,0,0,.57-.12,4.35,4.35,0,0,0,.53-1.25.84.84,0,0,0-.42-.92c-19.87-15-30-28.23-37.79-50.47-.18-.43.19-.76.46-.65.88.37,3-.67,3.17,0,7.84,21.28,15.63,34.53,36.25,49.79a1.82,1.82,0,0,1,.81,2c-2,5.11-5.5,8.62-9.67,10.1A3.22,3.22,0,0,1,61.9,144c-23-10.55-43.82-30.37-54-53.37-.1-.26.26-.56.67-.41,1.16.42,3.15-1.15,3.76.06l0,.07h0a105.05,105.05,0,0,0,50.05,51.34,1.56,1.56,0,0,0,1.28.18,7.22,7.22,0,0,0,1.27-.58c.38-.22.48-.47.06-.65"/><path class="cls-1" d="M53.94,101.62C47.54,76.24,47.15,53,56.73,30.48c.3-.43.6-.2.79-.09.76,1.25,3.13,1.49,2.46,2.71-8.66,23.58-9.91,45.06-3.51,69.07.05.28.09.5.63.61a4.74,4.74,0,0,0,1.68,0c.34-.06.38-.25.28-.57-4.74-22.47-4-45.5,5.47-68.06a.43.43,0,0,1,.74-.07c.91,1.36,2.87,1.5,2.54,2.44h0c-9,22.06-10.74,42.95-6.43,65.35a.35.35,0,0,0,.48.31,4,4,0,0,0,1.27-.51.83.83,0,0,0,.35-1c-3.45-24.65-1.22-41.14,9-62.4.19-.44.68-.41.79-.13.36.88,2.63,1.67,2.22,2.26-9.5,20.59-13.36,35.46-9.57,60.84a1.82,1.82,0,0,1-.87,2c-5,2.21-10,2.21-14,.3a3.13,3.13,0,0,1-1.67-1.84c-8.78-23.69-9.51-52.46-.43-75.9.12-.25.58-.21.76.19.53,1.12,3,1.41,2.62,2.69l0,.07a105,105,0,0,0-.91,71.69,1.54,1.54,0,0,0,.78,1,6.79,6.79,0,0,0,1.31.48c.41.12.66,0,.49-.41"/><path class="cls-1" d="M73.72,66.15C87.14,43.68,103.31,27,126,17.82c.52-.09.57.28.62.5-.34,1.42,1.17,3.26-.18,3.65C103.64,32.52,87.57,46.82,75.11,68.33c-.16.23-.28.42,0,.87a4.64,4.64,0,0,0,1.19,1.19c.28.2.44.09.59-.2,12.55-19.24,29.36-35,52-44.26a.43.43,0,0,1,.57.47c-.32,1.61,1,3.09.07,3.52h0c-22,9.2-38,22.78-50.75,41.66a.36.36,0,0,0,.12.57,4.35,4.35,0,0,0,1.25.53.84.84,0,0,0,.92-.42c15-19.87,28.23-30,50.47-37.79.43-.18.76.19.65.46-.37.88.67,3,0,3.17C110.88,46,97.63,53.74,82.37,74.36a1.82,1.82,0,0,1-2,.81c-5.11-2-8.62-5.5-10.1-9.67A3.22,3.22,0,0,1,70.36,63c10.55-23,30.37-43.82,53.37-54,.26-.1.56.26.41.67-.43,1.16,1.15,3.15-.06,3.76l-.07,0h0A105.05,105.05,0,0,0,72.67,63.54a1.52,1.52,0,0,0-.18,1.28,7.22,7.22,0,0,0,.58,1.27c.22.38.47.48.65.06"/><path class="cls-2" d="M575.14,102.83l.27-4.17h-.83a4.78,4.78,0,0,1-1,2.51,4.67,4.67,0,0,1-2.84.69,5.93,5.93,0,0,1-2.7-.36c-.33-.26-.47-.77-.47-1.63V90.48c0-1.54.15-1.57,2.43-1.69V88h-7.55v.83c2.1.12,2.28.15,2.28,1.69v9.83c0,1.54-.15,1.57-2.28,1.69v.83Zm-22-6.4h-4.3L551,90.3h0Zm6.69,6.4V102c-1.36-.06-1.81-.11-2.16-1.09L553,88h-2.34l-2.37,6.58c-.65,1.8-1.61,4.44-2.28,6.13-.42,1.06-.77,1.24-2.29,1.33v.83h5.52V102l-1.36-.12c-.62,0-.63-.41-.51-.91.23-.89.71-2.34,1.16-3.56h4.94l1.31,3.65c.18.5.17.81-.42.85l-1.18.09v.83ZM526.47,88v.83c2.1.12,2.28.15,2.28,1.69v7.85a17.86,17.86,0,0,1-.15,2.61,1.05,1.05,0,0,1-1.07.94l-.94.12v.83h5.89V102l-1.1-.12c-.76-.08-1.18-.26-1.27-.94a19.4,19.4,0,0,1-.15-2.61V90H530l9.06,12.79h2.11V92.47a18.41,18.41,0,0,1,.18-2.7,1.07,1.07,0,0,1,1-.86l1-.12V88h-5.92v.83l1.15.12c.74.08,1.16.3,1.25,1a20,20,0,0,1,.14,2.61v6.84l-.06.06c-2.72-3.77-5.39-7.59-8.08-11.41Zm-10.94,15.23a7.72,7.72,0,0,0,5.81-2.08,8,8,0,0,0,1.92-5.71,8,8,0,0,0-1.92-5.72,9.17,9.17,0,0,0-11.61,0,8,8,0,0,0-1.93,5.72,8,8,0,0,0,1.93,5.71A7.66,7.66,0,0,0,515.53,103.19Zm0-14.6c3.62,0,4.62,3.52,4.62,6.81s-1,6.81-4.62,6.81-4.62-3.52-4.62-6.81S511.92,88.59,515.53,88.59Zm-13.12,1.89c0-1.54.14-1.57,2.28-1.69V88h-7.41v.83c2.1.12,2.28.15,2.28,1.69v9.83c0,1.54-.15,1.57-2.28,1.69v.83h7.41V102c-2.11-.12-2.28-.14-2.28-1.69Zm-8.24-2a12.84,12.84,0,0,0-4.95-.89,8.55,8.55,0,0,0-6.19,2,8.84,8.84,0,0,0-.18,11.58c1.36,1.34,3.35,2,6,2a13,13,0,0,0,5.36-1l.36-4h-.83c-.74,2.07-1.48,4-4.62,4-4.47,0-5.27-4.32-5.27-6.93,0-3.76,1.69-6.73,5.18-6.69,2.9,0,3.82,1.83,4.27,3.7h.83ZM473,96.43h-4.29l2.16-6.13h.06Zm6.7,6.4V102c-1.37-.06-1.81-.11-2.17-1.09L472.8,88h-2.33l-2.38,6.58c-.65,1.81-1.6,4.44-2.28,6.13-.42,1.06-.77,1.24-2.28,1.33v.83H469V102l-1.36-.12c-.62,0-.63-.41-.5-.91.22-.89.71-2.34,1.15-3.56h4.95l1.3,3.65c.18.5.18.81-.41.85L473,102v.83ZM445.81,88v.83c2.1.12,2.28.15,2.28,1.69v7.85a18,18,0,0,1-.15,2.61,1.05,1.05,0,0,1-1.07.94l-.94.12v.83h5.89V102l-1.1-.12c-.76-.08-1.18-.26-1.27-.94a19.4,19.4,0,0,1-.15-2.61V90h.06q4.53,6.39,9.07,12.79h2.1V92.47a18.41,18.41,0,0,1,.18-2.7,1.08,1.08,0,0,1,1-.86l.95-.12V88h-5.92v.83l1.15.12c.74.08,1.16.3,1.25,1a20,20,0,0,1,.14,2.61v6.84l-.05.06c-2.73-3.77-5.4-7.59-8.09-11.41Zm-12.76,7V89.86c0-.8.59-.92,2-.92s3.29.5,3.29,3c0,2.07-1.19,3-3.2,3Zm1.89,1c1.27,0,2,.39,2.31,1.1.41.89.57,2.72,1,4a2.41,2.41,0,0,0,2.57,1.75h2.32V102a2,2,0,0,1-1.55-.56,4.68,4.68,0,0,1-.85-2.16c-.31-1.87-.69-3.26-3.06-3.79v-.06c2.11-.24,3.65-1.54,3.65-3.62S440,88,435.92,88h-8v.83c2.1.12,2.28.15,2.28,1.69v9.83c0,1.54-.15,1.57-2.28,1.69v.83h7.41V102c-2.11-.12-2.28-.14-2.28-1.69V96ZM412,88v.83c2.1.12,2.28.15,2.28,1.69v9.83c0,1.54-.15,1.57-2.28,1.69v.83h13l.27-4h-.83a5.07,5.07,0,0,1-1,2.4c-.52.49-1.57.66-3.23.66a5.52,5.52,0,0,1-2.63-.39c-.33-.26-.48-.77-.48-1.63V95.6h2.94c1.92,0,2.31.36,2.51,2h.83V92.67h-.83c-.2,1.6-.59,2-2.51,2h-2.94V89.68c0-.53.15-.74.66-.74H420c2.22,0,3.35.3,3.67,2.76h.83V88Zm-8,1h1.51c2.34,0,3,.65,3.23,3h.83V88h-14V91.9h.83c.27-2.31.89-3,3.23-3h1.51v11.37c0,1.54-.14,1.57-2.72,1.69v.83h8.29V102c-2.55-.12-2.72-.14-2.72-1.69Zm-27.55-1v.83c2.1.12,2.28.15,2.28,1.69v7.85a17.86,17.86,0,0,1-.15,2.61,1.06,1.06,0,0,1-1.07.94l-.95.12v.83h5.9V102l-1.1-.12c-.77-.08-1.18-.26-1.27-.94a19.4,19.4,0,0,1-.15-2.61V90H380l9.06,12.79h2.11V92.47a20.1,20.1,0,0,1,.17-2.7,1.09,1.09,0,0,1,1-.86l.95-.12V88h-5.92v.83l1.15.12c.74.08,1.16.3,1.24,1a18.15,18.15,0,0,1,.15,2.61v6.84l-.06.06c-2.72-3.77-5.39-7.59-8.08-11.41Zm-26.27,14.87.36-5.57h-1.11a6.42,6.42,0,0,1-1.34,3.36,6.23,6.23,0,0,1-3.79.91c-1.86,0-3.17-.15-3.6-.48s-.63-1-.63-2.17V86.36c0-2,.2-2.09,3.24-2.25V83H333.25v1.11c2.8.16,3,.2,3,2.25V99.47c0,2.06-.2,2.1-3,2.25v1.11Zm-29.4-8.53h-5.73L318,86.13H318Zm8.93,8.53v-1.11c-1.82-.07-2.42-.15-2.89-1.46L320.59,83h-3.12l-3.16,8.77c-.86,2.41-2.14,5.92-3,8.18-.56,1.41-1,1.66-3,1.77v1.11h7.35v-1.11l-1.82-.15c-.83-.08-.84-.56-.67-1.23.3-1.18,1-3.12,1.54-4.74h6.6l1.73,4.86c.24.67.24,1.09-.55,1.15l-1.58.11v1.11ZM284.67,83v1.11c2.81.16,3,.2,3,2.25V96.83a24.38,24.38,0,0,1-.19,3.47,1.44,1.44,0,0,1-1.43,1.27l-1.26.15v1.11h7.86v-1.11l-1.46-.15c-1-.11-1.58-.36-1.7-1.27a25.81,25.81,0,0,1-.2-3.47V85.77h.08l12.09,17.06h2.8V89a24.19,24.19,0,0,1,.24-3.6,1.43,1.43,0,0,1,1.38-1.14l1.88-.16V83h-8.51v1.11l1.54.16c1,.1,1.54.39,1.65,1.26a24.79,24.79,0,0,1,.2,3.48v9.12l-.08.08c-3.63-5-7.19-10.11-10.78-15.21Zm-21.38,0v1.11c2.8.16,3,.2,3,2.25V99.47c0,2.06-.2,2.1-3,2.25v1.11h17.33l.36-5.37h-1.11a6.76,6.76,0,0,1-1.3,3.2c-.69.65-2.09.87-4.31.87a7.41,7.41,0,0,1-3.51-.52c-.44-.34-.63-1-.63-2.17V93.19H274c2.56,0,3.08.48,3.35,2.61h1.11V89.28h-1.11c-.27,2.14-.79,2.61-3.35,2.61h-3.91V85.3c0-.72.2-1,.87-1h2.88c3,0,4.46.39,4.9,3.67h1.1V83Zm107.53,2.77c0-1.66.08-1.72,2.66-1.9V83h-8.26v.86c2.6.18,2.66.24,2.66,1.9v14.32c0,1.66-.06,1.72-2.66,1.9v.86h8.26V102c-2.58-.18-2.66-.24-2.66-1.9ZM232.49,81.18c0-1.53.1-1.74,2.88-1.78,2.57,0,5.46,1,5.46,4.64,0,3.49-2.25,4.88-6,4.88h-2.39Zm0,9h2.57c4.42,0,6.84,2.21,6.84,6,0,4.29-2.92,5.43-6,5.43-2.85,0-3.42-.54-3.42-2.75Zm-.68-12H225v1.14c3.47.24,3.55.32,3.55,2.53V99.15c0,2.21-.08,2.29-3.55,2.53v1.16H236.8c5.42,0,8.92-2,8.92-6.92,0-4.2-3-6.06-6.46-6.52v-.07c3.35-.68,5.32-2.75,5.32-5.49a5,5,0,0,0-2.21-4.39c-1.4-.93-3.53-1.32-6.32-1.29Zm24.11,8.21c0-2,.2-2.09,3-2.25V83h-9.87v1.11c2.8.16,3,.2,3,2.25V99.47c0,2.06-.2,2.1-3,2.25v1.11H259v-1.11c-2.8-.15-3-.19-3-2.25Z"/><path class="cls-2" d="M551.4,115.09l6-3.32c1.17-.65,2.21-1.3,2.21-2.13a2,2,0,0,0-1.54-1.7c-.67,0-1.33.41-2.53,1.62l-4.7,4.74Zm2.65,13.77h-5.73l2.89-8.18h.07Zm8.92,8.53v-1.11c-1.81-.08-2.41-.16-2.88-1.46l-6.24-17.26h-3.12l-3.16,8.77c-.87,2.41-2.14,5.92-3,8.17-.56,1.42-1,1.66-3,1.78v1.11h7.36v-1.11l-1.82-.16c-.83-.07-.84-.55-.67-1.22.3-1.19.95-3.12,1.54-4.74h6.59l1.74,4.86c.24.67.24,1.08-.55,1.14l-1.58.12v1.11Zm-37.2-10.47v-6.83c0-1.07.79-1.23,2.65-1.23s4.38.68,4.38,4.07c0,2.77-1.58,4-4.27,4Zm2.53,1.3c1.7,0,2.64.52,3.08,1.47.55,1.18.76,3.63,1.38,5.37a3.24,3.24,0,0,0,3.44,2.33h3.08v-1.11a2.69,2.69,0,0,1-2.06-.75,6.22,6.22,0,0,1-1.14-2.88c-.4-2.49-.91-4.35-4.07-5.06v-.08c2.8-.31,4.86-2.05,4.86-4.81,0-3-1.9-5.14-7.27-5.14H518.94v1.11c2.8.16,3,.2,3,2.25V134c0,2.05-.2,2.09-3,2.25v1.11h9.87v-1.11c-2.8-.16-3-.2-3-2.25v-5.81Zm-20.59.64H502l2.88-8.18h.08Zm8.92,8.53v-1.11c-1.82-.08-2.41-.16-2.88-1.46l-6.24-17.26h-3.12l-3.16,8.77c-.87,2.41-2.15,5.92-3,8.17-.57,1.42-1,1.66-3.05,1.78v1.11h7.35v-1.11l-1.81-.16c-.83-.07-.85-.55-.68-1.22.31-1.19.95-3.12,1.54-4.74h6.6l1.74,4.86c.24.67.23,1.08-.56,1.14l-1.58.12v1.11Zm-41-19.83v1.11c2.8.16,3,.19,3,2.25V134c0,2.05-.2,2.09-3,2.25v1.11H493l.36-5.37h-1.11a7,7,0,0,1-1.3,3.19c-.71.64-2.09.87-4.31.87a7.62,7.62,0,0,1-3.51-.51c-.43-.36-.63-1-.63-2.17v-5.65h3.91c2.56,0,3.08.47,3.35,2.61h1.11v-6.52h-1.11c-.27,2.13-.79,2.61-3.35,2.61h-3.91v-6.6c0-.71.2-1,.87-1h2.88c3,0,4.46.4,4.9,3.68h1.1v-5Zm-46.3,20.19a7.75,7.75,0,0,0,5.8-2.08,9.43,9.43,0,0,0,0-11.43,9.14,9.14,0,0,0-11.61,0,9.47,9.47,0,0,0,0,11.43A7.72,7.72,0,0,0,429.34,137.75Zm0-14.61c3.61,0,4.62,3.53,4.62,6.81s-1,6.82-4.62,6.82-4.62-3.53-4.62-6.82S425.72,123.14,429.34,123.14Zm-26.91-.62v.83c2.11.12,2.28.15,2.28,1.69v9.83c0,1.54-.14,1.57-2.28,1.69v.83H410a10.84,10.84,0,0,0,6-1.36c1.62-1.11,2.81-3,2.81-6.28a7.07,7.07,0,0,0-1.89-5.33c-1.28-1.25-3.35-1.9-6-1.9Zm5.13,2.16c0-1,.21-1.21,2.63-1.18,4.24,0,5.51,2.81,5.51,6.51,0,5.48-3,6.4-5.71,6.4-1.84,0-2.43-.3-2.43-1.86Zm-30,13.19c3.47,0,6-1,7.74-2.77s2.56-4.39,2.56-7.63-.84-5.83-2.56-7.62-4.27-2.76-7.74-2.76-6.05,1-7.75,2.76-2.56,4.39-2.56,7.62.87,5.85,2.56,7.63S374.06,137.87,377.54,137.87Zm0-19.48c4.81,0,6.16,4.7,6.16,9.08s-1.35,9.09-6.16,9.09-6.17-4.7-6.17-9.09S372.72,118.39,377.54,118.39Zm-26.27,8.53v-6.83c0-1.07.79-1.23,2.64-1.23s4.39.68,4.39,4.07c0,2.77-1.58,4-4.27,4Zm2.52,1.3c1.7,0,2.65.52,3.08,1.47.55,1.18.76,3.63,1.39,5.37a3.23,3.23,0,0,0,3.43,2.33h3.08v-1.11a2.65,2.65,0,0,1-2-.75,6.1,6.1,0,0,1-1.15-2.88c-.4-2.49-.91-4.35-4.06-5.06v-.08c2.8-.31,4.85-2.05,4.85-4.81,0-3-1.89-5.14-7.26-5.14H344.43v1.11c2.81.16,3,.2,3,2.25V134c0,2.05-.19,2.09-3,2.25v1.11h9.88v-1.11c-2.81-.16-3-.2-3-2.25v-5.81Zm-19-10.66v1.11l2,.19c.67.07.77.4.64,1-.31,1.47-1.26,3.76-2.18,6.36L332.5,134h-.08l-2.57-7c-.85-2.33-1.61-4.66-2.45-7-.22-.63-.12-1,.48-1.11l2.05-.19v-1.11h-9.24v1.11c2,.16,2.38.27,3,1.89,1.08,2.64,1.95,5.29,3,8.1l3.16,8.73h3l3.67-9.8c1.18-3.16,2.32-5.85,3-7.26s1-1.54,2.92-1.66v-1.11Zm-19.87,3.36c0-2.06.2-2.09,3-2.25v-1.11h-9.87v1.11c2.8.16,3,.2,3,2.25V134c0,2.05-.2,2.09-3,2.25v1.11h9.87v-1.11c-2.8-.16-3-.2-3-2.25Zm-50.53,16.83a7.72,7.72,0,0,0,5.81-2.08,9.43,9.43,0,0,0,0-11.43,9.14,9.14,0,0,0-11.61,0,9.43,9.43,0,0,0,0,11.43A7.69,7.69,0,0,0,264.35,137.75Zm0-14.61c3.62,0,4.63,3.53,4.63,6.81s-1,6.82-4.63,6.82-4.62-3.53-4.62-6.82S260.74,123.14,264.35,123.14Zm-26.9-.62v.83c2.1.12,2.28.15,2.28,1.69v9.83c0,1.54-.15,1.57-2.28,1.69v.83H245a10.79,10.79,0,0,0,6-1.36c1.62-1.1,2.81-3,2.81-6.28a7,7,0,0,0-1.9-5.33c-1.27-1.25-3.34-1.87-6-1.9Zm5.12,2.16c0-1,.21-1.18,2.64-1.18,4.24.09,5.51,2.81,5.51,6.51,0,5.48-3,6.4-5.72,6.4-1.83,0-2.43-.3-2.43-1.86Zm228.69-11.55a19.1,19.1,0,0,0-7.66-1.41c-4.44,0-8,1.3-10.18,3.72a13.77,13.77,0,0,0-3.4,9.5c0,4.22,1.38,7.62,3.54,9.78s5.78,3.07,9.83,3.07a19.16,19.16,0,0,0,7.94-1.73l.5-6h-1.08c-1,3.75-2.85,6.5-7.58,6.5-7.44,0-8.71-7.33-8.71-11.7,0-5.92,2.07-11.87,8.78-11.85,3.68,0,6.25,1.52,6.93,5.78h1.09Zm-177,3.17c0-2.21.12-2.29,3.56-2.53v-1.14h-11v1.14c3.47.24,3.55.32,3.55,2.53v17.33c0,2.21-.08,2.29-3.55,2.52v1.15H306l.42-6.38h-1.07c-.71,4.67-2.67,5.13-6.41,5.13a12.29,12.29,0,0,1-3.81-.35c-.65-.27-.84-.76-.88-2h0V116.3Z"/><line class="cls-3" x1="366.77" y1="162.19" x2="225.31" y2="162.19"/><line class="cls-3" x1="575.13" y1="162.19" x2="439.34" y2="162.19"/><path class="cls-2" d="M425.94,149.48v1.42l2.58.25c.87.09,1,.51.82,1.32-.39,1.88-1.61,4.82-2.79,8.15l-3.49,9.87H423l-3.29-9c-1.1-3-2.07-6-3.14-9-.29-.81-.16-1.34.6-1.42l2.64-.25v-1.42H407.92v1.42c2.53.2,3.05.35,3.9,2.43,1.38,3.39,2.49,6.78,3.79,10.38l4.06,11.19h3.79l4.71-12.55c1.52-4.06,3-7.5,3.8-9.32s1.32-2,3.74-2.13v-1.42Z"/><path class="cls-2" d="M370.4,174.9h9.29v-1.28l-2.21-.18c-.69-.08-.91-.48-.55-1.22,1.07-2.13,2.87-5.07,4.56-7.79h.11l4.78,7.83c.36.63.25,1-.56,1.14l-1.91.22v1.28h11.65v-1.28c-2.42-.11-2.83-.41-3.93-2.17-1.51-2.42-5.59-8.86-7-11.13,1.91-2.91,4-5.81,5.54-7.68,1.29-1.62,1.95-1.77,3.94-1.88v-1.28h-8.42v1.28l1.66.15c.66.07.73.44.33,1.17-1.1,2.06-2.57,4.23-4.12,6.62h-.07l-4-6.5c-.44-.74-.33-1.18.37-1.26l1.62-.18v-1.28H370.91v1.28c2.13.15,2.46.37,3.52,2,1.25,1.95,4.71,7.5,6.07,9.78-2.06,3.05-4.67,7.05-6.25,9.15-1.21,1.58-1.5,1.76-3.85,1.91Z"/><path class="cls-2" d="M403.79,153c0-1.95.22-2.06,3-2.21v-1.28H395.67v1.28c2.83.15,3.05.26,3.05,2.21v18.45c0,1.94-.22,2.05-3.05,2.2v1.28h11.17v-1.28c-2.83-.15-3-.26-3-2.2Z"/></svg>